# xmcd CD database file
#
# Track frame offsets:
#	150
#	19651
#	41409
#	64114
#	80234
#	101187
#	125161
#	149980
#	169523
#	189724
#	215295
#	239900
#
# Disc length: 3426 seconds
#
# Revision: 1
# Processed by: cddbd v1.5PL3 Copyright (c) Steve Scherf et al.
# Submitted via: CDex 1.51
#
DISCID=bd0d600c
DTITLE=Mai Kuraki - FAIRY TALE
DYEAR=1900
DGENRE=
TTITLE0=Fairy tale -my last teenage wish-
TTITLE1=Feel fine!
TTITLE2=Raide on time
TTITLE3=key to my heart
TTITLE4=Winter Bells
TTITLE5=Loving You...
TTITLE6=Can't forget your love
TTITLE7=Trip in the dream
TTITLE8=Not that kind a girl
TTITLE9=Like a star in the night
TTITLE10=fushigi no kuni
TTITLE11=fantasy
EXTD=
EXTT0=
EXTT1=
EXTT2=
EXTT3=
EXTT4=
EXTT5=
EXTT6=
EXTT7=
EXTT8=
EXTT9=
EXTT10=
EXTT11=
PLAYORDER=
